<mxfile host="app.diagrams.net" modified="2023-05-18T12:46:59.473Z" agent="Mozilla/5.0 (X11; Linux x86_64; rv:102.0) Gecko/20100101 Firefox/102.0" etag="Pl6uj9LDwf7Lr2z8k6XX" version="21.3.2" type="device">
  <diagram name="PÃ¡gina-1" id="-pn4PrcCB0aOLdGNFKwQ">
    <mxGraphModel dx="576" dy="320" grid="1" gridSize="10" guides="1" tooltips="1" connect="1" arrows="1" fold="1" page="1" pageScale="1" pageWidth="1169" pageHeight="827" math="0" shadow="0">
      <root>
        <mxCell id="0" />
        <mxCell id="1" parent="0" />
        <mxCell id="GVC4xmCI0ztt-ApkChza-2" value="" style="endArrow=classic;html=1;rounded=0;" parent="1" edge="1">
          <mxGeometry width="50" height="50" relative="1" as="geometry">
            <mxPoint x="200" y="480" as="sourcePoint" />
            <mxPoint x="440" y="480" as="targetPoint" />
          </mxGeometry>
        </mxCell>
        <mxCell id="DfE6INUnDFdgPhouwwiO-25" value="" style="ellipse;whiteSpace=wrap;html=1;aspect=fixed;fillColor=#F1B880;strokeColor=#f18e00;" parent="1" vertex="1">
          <mxGeometry x="250" y="475" width="10" height="10" as="geometry" />
        </mxCell>
        <mxCell id="DfE6INUnDFdgPhouwwiO-26" value="" style="ellipse;whiteSpace=wrap;html=1;aspect=fixed;fillColor=#F1B880;strokeColor=#f18e00;" parent="1" vertex="1">
          <mxGeometry x="255" y="475" width="10" height="10" as="geometry" />
        </mxCell>
        <mxCell id="DfE6INUnDFdgPhouwwiO-27" value="" style="ellipse;whiteSpace=wrap;html=1;aspect=fixed;fillColor=#F1B880;strokeColor=#f18e00;" parent="1" vertex="1">
          <mxGeometry x="280" y="475" width="10" height="10" as="geometry" />
        </mxCell>
        <mxCell id="DfE6INUnDFdgPhouwwiO-28" value="" style="ellipse;whiteSpace=wrap;html=1;aspect=fixed;fillColor=#F1B880;strokeColor=#f18e00;" parent="1" vertex="1">
          <mxGeometry x="287" y="475" width="10" height="10" as="geometry" />
        </mxCell>
        <mxCell id="DfE6INUnDFdgPhouwwiO-29" value="" style="ellipse;whiteSpace=wrap;html=1;aspect=fixed;fillColor=#F1B880;strokeColor=#f18e00;" parent="1" vertex="1">
          <mxGeometry x="266" y="475" width="10" height="10" as="geometry" />
        </mxCell>
        <mxCell id="DfE6INUnDFdgPhouwwiO-30" value="" style="ellipse;whiteSpace=wrap;html=1;aspect=fixed;fillColor=#F1B880;strokeColor=#f18e00;" parent="1" vertex="1">
          <mxGeometry x="294" y="475" width="10" height="10" as="geometry" />
        </mxCell>
        <mxCell id="DfE6INUnDFdgPhouwwiO-31" value="" style="ellipse;whiteSpace=wrap;html=1;aspect=fixed;fillColor=#F1B880;strokeColor=#f18e00;" parent="1" vertex="1">
          <mxGeometry x="268" y="475" width="10" height="10" as="geometry" />
        </mxCell>
        <mxCell id="DfE6INUnDFdgPhouwwiO-32" value="" style="ellipse;whiteSpace=wrap;html=1;aspect=fixed;fillColor=#F1B880;strokeColor=#f18e00;" parent="1" vertex="1">
          <mxGeometry x="306" y="475" width="10" height="10" as="geometry" />
        </mxCell>
        <mxCell id="DfE6INUnDFdgPhouwwiO-33" value="" style="ellipse;whiteSpace=wrap;html=1;aspect=fixed;fillColor=#F1B880;strokeColor=#f18e00;" parent="1" vertex="1">
          <mxGeometry x="309" y="475" width="10" height="10" as="geometry" />
        </mxCell>
        <mxCell id="DfE6INUnDFdgPhouwwiO-34" value="" style="ellipse;whiteSpace=wrap;html=1;aspect=fixed;fillColor=#F1B880;strokeColor=#f18e00;" parent="1" vertex="1">
          <mxGeometry x="330" y="475" width="10" height="10" as="geometry" />
        </mxCell>
        <mxCell id="DfE6INUnDFdgPhouwwiO-35" value="" style="ellipse;whiteSpace=wrap;html=1;aspect=fixed;fillColor=#F1B880;strokeColor=#f18e00;" parent="1" vertex="1">
          <mxGeometry x="333" y="475" width="10" height="10" as="geometry" />
        </mxCell>
        <mxCell id="DfE6INUnDFdgPhouwwiO-36" value="" style="ellipse;whiteSpace=wrap;html=1;aspect=fixed;fillColor=#F1B880;strokeColor=#f18e00;" parent="1" vertex="1">
          <mxGeometry x="316" y="475" width="10" height="10" as="geometry" />
        </mxCell>
        <mxCell id="DfE6INUnDFdgPhouwwiO-37" value="" style="ellipse;whiteSpace=wrap;html=1;aspect=fixed;fillColor=#F1B880;strokeColor=#f18e00;" parent="1" vertex="1">
          <mxGeometry x="344" y="475" width="10" height="10" as="geometry" />
        </mxCell>
        <mxCell id="DfE6INUnDFdgPhouwwiO-38" value="" style="ellipse;whiteSpace=wrap;html=1;aspect=fixed;fillColor=#F1B880;strokeColor=#f18e00;" parent="1" vertex="1">
          <mxGeometry x="361" y="475" width="10" height="10" as="geometry" />
        </mxCell>
        <mxCell id="DfE6INUnDFdgPhouwwiO-39" value="" style="ellipse;whiteSpace=wrap;html=1;aspect=fixed;fillColor=#F1B880;strokeColor=#f18e00;" parent="1" vertex="1">
          <mxGeometry x="368" y="475" width="10" height="10" as="geometry" />
        </mxCell>
        <mxCell id="DfE6INUnDFdgPhouwwiO-40" value="" style="ellipse;whiteSpace=wrap;html=1;aspect=fixed;fillColor=#F1B880;strokeColor=#f18e00;" parent="1" vertex="1">
          <mxGeometry x="374" y="475" width="10" height="10" as="geometry" />
        </mxCell>
      </root>
    </mxGraphModel>
  </diagram>
</mxfile>
